#N canvas 451 221 1150 840 10;
#X obj 439 37 inlet;
#X obj 513 676 throw~ revL;
#X obj 601 674 throw~ revR;
#X obj 32 162 sel 0;
#X obj 252 219 spigot;
#X obj 320 18 r improvise;
#X obj 358 61 loadbang;
#X msg 355 85 0;
#X obj 59 186 b;
#X obj 32 35 counter \$1;
#X obj 32 140 tabread \$1-pattern;
#X msg 337 184 1;
#X obj 461 143 mtof;
#X obj 366 560 *~ 0;
#X msg 457 439 1;
#X msg 415 439 0;
#X obj 437 384 sel 0 1;
#X obj 436 119 f;
#X obj 220 76 b;
#X obj 307 672 throw~ mainL;
#X obj 718 491 switch~;
#X obj 718 395 loadbang;
#X obj 390 672 throw~ mainR;
#X msg 559 208 stop;
#X obj 462 166 t f b;
#X obj 430 282 line;
#X obj 449 232 f;
#X obj 485 258 abs;
#X obj 487 228 -;
#X obj 423 203 list append f;
#X obj 495 283 / 2;
#X obj 204 334 vline~;
#X obj 218 403 simplesaw;
#X obj 259 449 *~ 0.8;
#X obj 530 611 *~ 0.5;
#X msg 195 280 1 15 \, 0.5 50 10 \, 0 100 65;
#X obj 315 401 simplesaw;
#X obj 371 358 * 2;
#X obj 366 487 +~;
#X msg 720 425 1;
#X obj 307 645 *~ 0.5;
#X obj 390 646 *~ 0.5;
#X obj 513 651 *~ 0.5;
#X obj 601 650 *~ 0.5;
#X obj 270 570 \$2;
#X obj 671 568 \$3;
#X obj 321 448 *~ 0.65;
#X obj 366 527 lop~ 20000;
#X obj 53 590 list trim;
#X msg 39 673 \$1 \$2 \, \$3 \$4 \$5 \, \$6 \$7 \$8 \, \$9 \$10 \$11
;
#X msg 53 615 set \$1 \$2 \$3 \$4 \$5 \$6 \$7 \$8 \$9 \$10 \$11;
#X msg 39 647;
#X obj 53 566 r bassFilterEnvelope;
#X obj 39 722 snapshot~;
#X obj 39 699 vline~;
#X obj 147 455 tgl 15 0 empty empty empty 17 7 0 10 -262144 -1 -1 0
1;
#X obj 125 493 metro 10;
#X obj 51 89 sel 0;
#X obj 51 114 s bassSync;
#X obj 51 66 mod 4;
#X connect 0 0 17 1;
#X connect 3 1 8 0;
#X connect 4 0 35 0;
#X connect 5 0 4 1;
#X connect 5 0 16 0;
#X connect 5 0 55 0;
#X connect 6 0 7 0;
#X connect 7 0 4 1;
#X connect 8 0 4 0;
#X connect 8 0 51 0;
#X connect 9 0 10 0;
#X connect 9 0 18 0;
#X connect 9 0 59 0;
#X connect 10 0 3 0;
#X connect 11 0 4 1;
#X connect 11 0 16 0;
#X connect 12 0 24 0;
#X connect 13 0 34 0;
#X connect 13 0 40 0;
#X connect 13 0 41 0;
#X connect 14 0 13 1;
#X connect 15 0 13 1;
#X connect 16 0 15 0;
#X connect 16 1 14 0;
#X connect 17 0 12 0;
#X connect 18 0 17 0;
#X connect 21 0 39 0;
#X connect 21 0 45 0;
#X connect 21 0 44 0;
#X connect 23 0 25 0;
#X connect 24 0 26 1;
#X connect 24 0 28 0;
#X connect 24 0 29 0;
#X connect 24 1 23 0;
#X connect 24 1 26 0;
#X connect 25 0 32 1;
#X connect 25 0 37 0;
#X connect 26 0 28 1;
#X connect 26 0 25 0;
#X connect 27 0 30 0;
#X connect 28 0 27 0;
#X connect 29 0 25 0;
#X connect 30 0 29 1;
#X connect 31 0 32 0;
#X connect 31 0 36 0;
#X connect 32 0 33 0;
#X connect 33 0 38 0;
#X connect 34 0 42 0;
#X connect 34 0 43 0;
#X connect 35 0 31 0;
#X connect 36 0 46 0;
#X connect 37 0 36 1;
#X connect 38 0 47 0;
#X connect 39 0 20 0;
#X connect 40 0 19 0;
#X connect 41 0 22 0;
#X connect 42 0 1 0;
#X connect 43 0 2 0;
#X connect 44 0 40 1;
#X connect 44 0 41 1;
#X connect 45 0 42 1;
#X connect 45 0 43 1;
#X connect 46 0 38 1;
#X connect 47 0 13 0;
#X connect 48 0 50 0;
#X connect 49 0 54 0;
#X connect 50 0 51 0;
#X connect 51 0 49 0;
#X connect 52 0 48 0;
#X connect 53 0 47 1;
#X connect 54 0 53 0;
#X connect 55 0 56 0;
#X connect 56 0 53 0;
#X connect 57 0 58 0;
#X connect 59 0 57 0;
