#N canvas 0 22 755 684 10;
#X obj 34 488 +~;
#X obj 34 514 osc~;
#X obj 33 640 outlet~;
#X obj 34 48 inlet;
#X obj 36 21 \$0;
#X obj 92 179 +~;
#X obj 135 147 *~ 1;
#X obj 69 119 osc~ 1;
#X obj 69 146 *~ 0.005;
#X obj 135 34 inlet;
#X obj 135 118 osc~ 200;
#X obj 92 212 *~ 50;
#X obj 479 18 inlet;
#X obj 222 180 +~;
#X obj 265 148 *~ 1;
#X obj 199 147 *~ 0.005;
#X obj 265 119 osc~ 200;
#X obj 222 213 *~ 50;
#X obj 357 180 +~;
#X obj 400 148 *~ 1;
#X obj 334 147 *~ 0.005;
#X obj 400 119 osc~ 200;
#X obj 357 213 *~ 50;
#X obj 266 78 * 2;
#X obj 398 75 * 3;
#X obj 489 179 +~;
#X obj 532 147 *~ 1;
#X obj 466 146 *~ 0.005;
#X obj 532 118 osc~ 200;
#X obj 489 212 *~ 50;
#X obj 638 181 +~;
#X obj 681 149 *~ 1;
#X obj 615 148 *~ 0.005;
#X obj 681 120 osc~ 200;
#X obj 638 214 *~ 50;
#X obj 530 74 * 4;
#X obj 679 76 * 5;
#X obj 92 234 *~ 0.9;
#X obj 222 236 *~ 0.2;
#X obj 357 235 *~ 0.1;
#X obj 497 234 *~ 0.1;
#X obj 638 235 *~ 0.1;
#X obj 588 435 switch~;
#X obj 588 405 r useFmSynthesizers;
#X connect 0 0 1 0;
#X connect 1 0 2 0;
#X connect 3 0 0 0;
#X connect 5 0 11 0;
#X connect 6 0 5 0;
#X connect 7 0 8 0;
#X connect 8 0 5 1;
#X connect 9 0 10 0;
#X connect 9 0 23 0;
#X connect 9 0 24 0;
#X connect 9 0 35 0;
#X connect 9 0 36 0;
#X connect 10 0 6 0;
#X connect 11 0 37 0;
#X connect 12 0 11 1;
#X connect 12 0 17 1;
#X connect 12 0 22 1;
#X connect 12 0 29 1;
#X connect 12 0 34 1;
#X connect 13 0 17 0;
#X connect 14 0 13 0;
#X connect 15 0 13 1;
#X connect 16 0 14 0;
#X connect 17 0 38 0;
#X connect 18 0 22 0;
#X connect 19 0 18 0;
#X connect 20 0 18 1;
#X connect 21 0 19 0;
#X connect 22 0 39 0;
#X connect 23 0 16 0;
#X connect 24 0 21 0;
#X connect 25 0 29 0;
#X connect 26 0 25 0;
#X connect 27 0 25 1;
#X connect 28 0 26 0;
#X connect 29 0 40 0;
#X connect 30 0 34 0;
#X connect 31 0 30 0;
#X connect 32 0 30 1;
#X connect 33 0 31 0;
#X connect 34 0 41 0;
#X connect 35 0 28 0;
#X connect 36 0 33 0;
#X connect 37 0 0 1;
#X connect 38 0 0 1;
#X connect 39 0 0 1;
#X connect 40 0 0 1;
#X connect 41 0 0 1;
#X connect 43 0 42 0;
