#N canvas 0 22 187 343 10;
#X msg -31 239 stop;
#X obj -132 34 t f b;
#X obj -123 74 f;
#X obj 3 166 abs;
#X obj 3 139 -;
#X obj -131 240 list append f;
#X obj -107 312 outlet;
#X obj -132 11 inlet;
#X obj -79 11 \$0;
#X obj 3 195 * 300;
#X obj -107 284 line 0 1;
#X connect 0 0 10 0;
#X connect 1 0 2 1;
#X connect 1 0 4 0;
#X connect 1 0 5 0;
#X connect 1 1 0 0;
#X connect 1 1 2 0;
#X connect 2 0 4 1;
#X connect 2 0 10 0;
#X connect 3 0 9 0;
#X connect 4 0 3 0;
#X connect 5 0 10 0;
#X connect 7 0 1 0;
#X connect 9 0 5 1;
#X connect 10 0 6 0;
