#N canvas 0 22 196 235 10;
#X msg -111 89 stop;
#X obj -208 47 t f b;
#X obj -240 163 line;
#X obj -221 113 f;
#X obj -185 139 abs;
#X obj -183 109 -;
#X obj -247 84 list append f;
#X obj -175 164 / 2;
#X obj -208 17 inlet;
#X obj -160 18 \$0;
#X obj -240 189 outlet;
#X connect 0 0 2 0;
#X connect 1 0 3 1;
#X connect 1 0 5 0;
#X connect 1 0 6 0;
#X connect 1 1 0 0;
#X connect 1 1 3 0;
#X connect 2 0 10 0;
#X connect 3 0 5 1;
#X connect 3 0 2 0;
#X connect 4 0 7 0;
#X connect 5 0 4 0;
#X connect 6 0 2 0;
#X connect 7 0 6 1;
#X connect 8 0 1 0;
