#N canvas 644 415 450 300 10;
#X obj 128 100 noise~;
#X obj 266 133 vline~;
#X obj 222 208 *~;
#X obj 159 131 hip~ 800;
#X obj 221 257 outlet~;
#X obj 222 46 inlet;
#X obj 221 232 *~ 0.4;
#X obj 313 198 \$1;
#X obj 351 153 loadbang;
#X msg 299 84 1 2 \, 0.6 4 2 \, 0 10 4;
#X connect 0 0 3 0;
#X connect 1 0 2 0;
#X connect 2 0 6 0;
#X connect 3 0 2 1;
#X connect 5 0 9 0;
#X connect 6 0 4 0;
#X connect 7 0 6 1;
#X connect 8 0 7 0;
#X connect 9 0 1 0;
