#N canvas 990 177 922 735 10;
#X obj 656 49 inlet;
#X obj 492 673 throw~ revL;
#X obj 568 674 throw~ revR;
#X obj 473 136 mtof;
#X obj 481 319 * 2;
#X obj 522 319 * 1;
#X obj 448 112 f;
#X obj 335 635 *~ 0.8;
#X obj 274 672 throw~ mainL;
#X obj 667 383 switch~;
#X obj 727 289 loadbang;
#X obj 357 672 throw~ mainR;
#X msg 669 197 stop;
#X obj 572 155 t f b;
#X obj 540 271 line;
#X obj 559 221 f;
#X obj 595 247 abs;
#X obj 597 217 -;
#X obj 533 192 list append f;
#X obj 605 272 / 2;
#X obj 381 580 *~ 1;
#X obj 389 428 *~ 0.3;
#X obj 453 41 b;
#X obj 453 16 r sync;
#X obj 169 265 vline~;
#X obj 110 127 spigot;
#X obj 311 20 r improvise;
#X obj 311 47 loadbang;
#X msg 311 76 0;
#X obj 110 91 b;
#X obj 110 66 r sync;
#X obj 371 527 *~;
#X msg 169 239 1 10 \, 0.7 20 10 \, 0 100 30;
#X obj 341 344 osc~ 440;
#X msg 729 319 0;
#X connect 0 0 3 0;
#X connect 3 0 33 1;
#X connect 7 0 8 0;
#X connect 7 0 1 0;
#X connect 7 0 2 0;
#X connect 7 0 11 0;
#X connect 10 0 34 0;
#X connect 12 0 14 0;
#X connect 13 0 15 1;
#X connect 13 0 17 0;
#X connect 13 0 18 0;
#X connect 13 1 12 0;
#X connect 13 1 15 0;
#X connect 15 0 17 1;
#X connect 15 0 14 0;
#X connect 16 0 19 0;
#X connect 17 0 16 0;
#X connect 18 0 14 0;
#X connect 19 0 18 1;
#X connect 20 0 7 0;
#X connect 21 0 31 1;
#X connect 22 0 6 0;
#X connect 23 0 22 0;
#X connect 24 0 31 0;
#X connect 25 0 32 0;
#X connect 26 0 25 1;
#X connect 27 0 28 0;
#X connect 28 0 25 1;
#X connect 29 0 25 0;
#X connect 30 0 29 0;
#X connect 31 0 20 0;
#X connect 32 0 24 0;
#X connect 33 0 21 0;
#X connect 34 0 9 0;
