#N canvas 178 200 1172 841 10;
#X obj 670 411 r setPattern;
#X text 532 15 Synchronization;
#X text 852 190 Patterns;
#X obj 646 60 pulsegenerator;
#X obj 534 92 tgl 15 0 empty empty empty 17 7 0 10 -262144 -1 -1 0
1;
#X obj 585 60 r tempo;
#X obj 534 60 r play;
#X obj 646 86 s pulse;
#X obj 748 60 r pulse;
#X obj 748 87 sel 0;
#X obj 748 116 s playbackAtIndexZero;
#X obj 534 115 metro 100;
#X obj 947 79 sampleloader;
#X obj 250 439 catch~ revL;
#X obj 329 439 catch~ revR;
#X obj 250 527 rev3~ 100 90 3000 20;
#X obj 170 685 dac~;
#X obj 250 553 *~ 0.6;
#X obj 300 553 *~ 0.6;
#X obj 851 224 table mbira-pattern;
#X obj 851 245 table pizz-pattern;
#X obj 851 267 table bar-pattern;
#X obj 851 288 table perc1-pattern;
#X obj 667 650 s mbira-pattern;
#X obj 722 624 s pizz-pattern;
#X obj 778 598 s bar-pattern;
#X obj 834 570 s perc1-pattern;
#X obj 890 544 s perc2-pattern;
#X obj 851 308 table perc2-pattern;
#X obj 851 334 table lead-pattern;
#X obj 907 510 s lead-pattern;
#X obj 464 372 lead lead;
#X obj 465 334 r leadNote;
#X obj 315 116 s lead-steps;
#X obj 50 440 catch~ mainL;
#X obj 161 439 catch~ mainR;
#X obj 161 520 *~ 1;
#X obj 50 517 *~ 1;
#X obj 212 595 +~;
#X obj 182 596 +~;
#X obj 212 684 recorder;
#X obj 311 622 r record;
#X obj 71 463 r mainGain;
#X obj 193 293 throw~ revL;
#X obj 269 293 throw~ revR;
#X obj 9 294 throw~ mainL;
#X obj 94 294 throw~ mainR;
#X obj 124 271 *~ 0.5;
#X obj 432 439 r improvise;
#X obj 432 461 sel 0 1;
#X msg 327 489 85;
#X msg 442 502 20;
#X msg 361 490 89;
#X msg 411 502 45;
#X obj 390 242 quantize;
#X obj 94 224 quantize;
#X obj 94 198 r playHat;
#X obj 308 334 r synthNotes;
#X obj 314 87 r synth-steps;
#X obj 921 487 s bass-pattern;
#X obj 670 436 route mbira pizz bar perc1 perc2 synth;
#X obj 851 355 table bass-pattern;
#X obj 403 118 s bass-steps;
#X obj 605 338 r bassNote;
#X obj 71 488 gainadjuster;
#X obj 534 146 s sync;
#X obj 176 373 synths-ps 0.5 0.5;
#X obj 601 367 bass bass 0.8 0.8;
#X obj 390 275 sampleplayer kick 0.4;
#X obj 462 241 spigot;
#X obj 656 139 r improvise;
#X obj 656 166 loadbang;
#X msg 656 195 0;
#X obj 477 145 r pulse;
#X obj 477 183 mod 4;
#X obj 477 208 sel 0;
#X obj 94 249 hat 0.2;
#X obj 274 193 quantize;
#X obj 390 178 r playSnare;
#X obj 213 222 sampleplayer snare 0.4;
#X obj 389 209 r bassSync;
#X obj 308 371 polysynth synth 0.65 0.65;
#X connect 0 0 60 0;
#X connect 3 0 7 0;
#X connect 4 0 11 0;
#X connect 5 0 11 1;
#X connect 6 0 4 0;
#X connect 8 0 9 0;
#X connect 9 0 10 0;
#X connect 11 0 65 0;
#X connect 13 0 15 0;
#X connect 14 0 15 1;
#X connect 15 0 17 0;
#X connect 15 1 18 0;
#X connect 17 0 39 1;
#X connect 18 0 38 1;
#X connect 32 0 31 0;
#X connect 34 0 37 0;
#X connect 35 0 36 0;
#X connect 36 0 38 0;
#X connect 37 0 39 0;
#X connect 38 0 16 1;
#X connect 38 0 40 1;
#X connect 39 0 16 0;
#X connect 39 0 40 0;
#X connect 41 0 40 2;
#X connect 42 0 64 0;
#X connect 47 0 43 0;
#X connect 47 0 44 0;
#X connect 48 0 49 0;
#X connect 49 0 50 0;
#X connect 49 0 53 0;
#X connect 49 1 52 0;
#X connect 49 1 51 0;
#X connect 50 0 15 3;
#X connect 51 0 15 5;
#X connect 52 0 15 3;
#X connect 53 0 15 5;
#X connect 55 0 76 0;
#X connect 56 0 55 0;
#X connect 57 0 81 0;
#X connect 58 0 33 0;
#X connect 58 0 62 0;
#X connect 60 0 23 0;
#X connect 60 1 24 0;
#X connect 60 2 25 0;
#X connect 60 3 26 0;
#X connect 60 4 27 0;
#X connect 60 5 30 0;
#X connect 60 5 59 0;
#X connect 63 0 67 0;
#X connect 64 0 37 1;
#X connect 64 0 36 1;
#X connect 69 0 68 0;
#X connect 70 0 69 1;
#X connect 71 0 72 0;
#X connect 72 0 69 1;
#X connect 73 0 74 0;
#X connect 74 0 75 0;
#X connect 76 0 45 0;
#X connect 76 0 46 0;
#X connect 76 0 47 0;
#X connect 77 0 79 0;
#X connect 78 0 77 0;
#X connect 80 0 69 0;
