#N canvas 658 48 991 1043 10;
#X obj 357 9 inlet;
#X obj 322 1006 throw~ revL;
#X obj 398 1006 throw~ revR;
#X obj 425 130 list split 1;
#X obj 357 84 list split 1;
#X obj 391 107 list split 1;
#X obj 30 248 vline~;
#X obj -29 115 spigot;
#X obj 172 6 r improvise;
#X obj 172 33 loadbang;
#X msg 172 62 0;
#X obj -29 77 b;
#X obj 46 1006 throw~ mainL;
#X obj 129 1006 throw~ mainR;
#X obj 30 148 list trim;
#X msg 30 223 \$1 \$2 \, \$3 \$4 \$5 \, \$6 \$7 \$8 \, \$9 \$10 \$11
;
#X msg 30 173 set \$1 \$2 \$3 \$4 \$5 \$6 \$7 \$8 \$9 \$10 \$11;
#X msg 30 199;
#X obj -17 620 r synthFilterCutoff;
#X obj 113 746 *~ 0.4;
#X obj 113 706 lop~ 20000;
#X obj 201 745 *~ 0.4;
#X obj 201 705 lop~ 20000;
#X obj 201 620 +~;
#X obj 113 620 +~;
#X obj 444 748 *~ 0.8;
#X obj 489 628 +~;
#X obj 490 748 *~ 0.4;
#X obj 30 124 r synthGainEnvelope;
#X text 439 84 top voice;
#X obj -29 52 r sync;
#X obj 622 658 r improvise;
#X obj 622 826 switch~;
#X obj 564 762 loadbang;
#X msg 586 799 0;
#X obj 459 157 list split 1;
#X obj 529 199 list split 1;
#X obj 97 466 sawsynth 0.6 0.3 1;
#X obj 106 648 clip~ -0.5 0.5;
#X obj 206 649 clip~ -0.5 0.5;
#X obj 222 467 sawsynth 0.4 0.2 2;
#X obj 344 466 sawsynth 0.3 0.1 3;
#X obj 466 467 sawsynth 0.3 0.1 4;
#X obj 588 466 sawsynth 0.3 0.1 5;
#X obj 14 672 - 0;
#X obj 37 531 r synthSoftness;
#X obj 46 924 *~ 0.5;
#X obj 129 923 *~ 0.5;
#X obj 322 924 *~ 0.5;
#X obj 398 924 *~ 0.5;
#X obj 5 844 \$2;
#X obj 522 844 \$3;
#X obj 46 946 hip~ 500;
#X obj 129 945 hip~ 500;
#X obj 322 946 hip~ 500;
#X obj 398 946 hip~ 500;
#X connect 0 0 4 0;
#X connect 3 0 41 1;
#X connect 3 1 35 0;
#X connect 4 0 37 1;
#X connect 4 1 5 0;
#X connect 5 0 40 1;
#X connect 5 1 3 0;
#X connect 6 0 37 0;
#X connect 6 0 40 0;
#X connect 6 0 41 0;
#X connect 6 0 42 0;
#X connect 6 0 43 0;
#X connect 7 0 17 0;
#X connect 8 0 7 1;
#X connect 9 0 10 0;
#X connect 10 0 7 1;
#X connect 11 0 7 0;
#X connect 14 0 16 0;
#X connect 15 0 6 0;
#X connect 16 0 17 0;
#X connect 17 0 15 0;
#X connect 18 0 44 0;
#X connect 19 0 48 0;
#X connect 20 0 19 0;
#X connect 20 0 46 0;
#X connect 21 0 49 0;
#X connect 22 0 21 0;
#X connect 22 0 47 0;
#X connect 23 0 39 0;
#X connect 24 0 38 0;
#X connect 25 0 46 0;
#X connect 25 0 47 0;
#X connect 26 0 25 0;
#X connect 26 0 27 0;
#X connect 27 0 48 0;
#X connect 27 0 49 0;
#X connect 28 0 14 0;
#X connect 30 0 11 0;
#X connect 31 0 32 0;
#X connect 33 0 34 0;
#X connect 33 0 51 0;
#X connect 33 0 50 0;
#X connect 34 0 32 0;
#X connect 35 0 42 1;
#X connect 35 1 36 0;
#X connect 36 0 43 1;
#X connect 37 0 24 0;
#X connect 37 1 23 0;
#X connect 37 2 26 0;
#X connect 38 0 20 0;
#X connect 39 0 22 0;
#X connect 40 0 24 1;
#X connect 40 1 23 1;
#X connect 40 2 26 1;
#X connect 41 0 24 1;
#X connect 41 1 23 1;
#X connect 41 2 26 1;
#X connect 42 0 24 1;
#X connect 42 1 23 1;
#X connect 42 2 26 1;
#X connect 43 0 24 1;
#X connect 43 1 23 1;
#X connect 43 2 26 1;
#X connect 44 0 20 1;
#X connect 44 0 22 1;
#X connect 45 0 44 1;
#X connect 46 0 52 0;
#X connect 47 0 53 0;
#X connect 48 0 54 0;
#X connect 49 0 55 0;
#X connect 50 0 46 1;
#X connect 50 0 47 1;
#X connect 51 0 49 1;
#X connect 51 0 48 1;
#X connect 52 0 12 0;
#X connect 53 0 13 0;
#X connect 54 0 1 0;
#X connect 55 0 2 0;
