#N canvas 425 131 932 923 10;
#X obj -73 285 f;
#X obj 3 280 + 1;
#X obj -48 589 hradio 15 1 0 16 empty empty empty 0 -8 0 10 -262144
-1 -1 6;
#X obj -58 103 bng 15 250 50 0 empty empty empty 17 7 0 10 -262144
-1 -1;
#X msg 2 352 1;
#X text -40 102 Back to beginning;
#X obj -94 454 delay;
#X obj -119 401 mod 2;
#X obj 152 252 bng 15 250 50 0 empty empty empty 17 7 0 10 -262144
-1 -1;
#X obj 186 356 * 2;
#X obj -61 518 f;
#X obj -119 479 bng 15 50 10 0 empty empty empty 17 7 0 10 -262144
-1 -1;
#X obj -94 479 bng 15 50 10 0 empty empty empty 17 7 0 10 -262144 -1
-1;
#X obj -73 373 t f f;
#X obj 241 208 t b f;
#X obj 172 131 hsl 128 15 0 1.5 0 0 empty empty empty -2 -8 0 10 -262144
-1 -1 0 1;
#X obj 186 321 / 3;
#X obj 215 152 loadbang;
#X obj 186 251 r tempo;
#X obj 169 105 r swing;
#X obj -119 428 route 0 1;
#X text 168 54 SWING;
#X text -116 52 PULSE GENERATOR;
#X text 26 423 Delay for swing;
#X obj 20 46 t b f f;
#X obj 20 20 r steps;
#X obj -97 588 outlet;
#X obj 125 518 mod 4;
#X msg -58 128 1;
#X obj -73 163 f;
#X obj -73 188 sel 1;
#X msg -26 160 0;
#X msg -58 257 0;
#X obj 53 474 sel 3;
#X obj -95 13 r reset;
#X obj -73 338 mod 32;
#X obj 2 329 sel 32;
#X msg 242 180 0;
#X obj 186 290 f;
#X obj -115 102 r sync;
#X connect 0 0 1 0;
#X connect 0 0 36 0;
#X connect 0 0 35 0;
#X connect 1 0 0 1;
#X connect 3 0 28 0;
#X connect 4 0 0 1;
#X connect 6 0 12 0;
#X connect 7 0 20 0;
#X connect 8 0 38 0;
#X connect 9 0 6 1;
#X connect 10 0 27 0;
#X connect 10 0 2 0;
#X connect 10 0 26 0;
#X connect 11 0 10 0;
#X connect 12 0 10 0;
#X connect 13 0 7 0;
#X connect 13 1 10 1;
#X connect 14 0 8 0;
#X connect 14 1 9 1;
#X connect 15 0 14 0;
#X connect 16 0 9 0;
#X connect 17 0 37 0;
#X connect 18 0 38 0;
#X connect 19 0 15 0;
#X connect 20 0 11 0;
#X connect 20 1 6 0;
#X connect 24 0 3 0;
#X connect 24 1 35 1;
#X connect 24 2 36 1;
#X connect 25 0 24 0;
#X connect 27 0 33 0;
#X connect 28 0 29 1;
#X connect 29 0 30 0;
#X connect 30 0 32 0;
#X connect 30 0 31 0;
#X connect 31 0 29 1;
#X connect 32 0 0 1;
#X connect 33 0 29 0;
#X connect 34 0 28 0;
#X connect 35 0 13 0;
#X connect 36 0 4 0;
#X connect 37 0 14 0;
#X connect 38 0 16 0;
#X connect 39 0 0 0;
