#N canvas 875 306 559 380 10;
#X obj 12 234 writesf~ 2;
#X obj 69 -100 inlet~;
#X obj 12 -100 inlet~;
#X obj 209 231 switch~;
#X obj 490 -46 loadbang;
#X obj 255 -73 inlet;
#X msg 209 190 1;
#X msg 296 7 start;
#X msg 379 62 0;
#X msg 420 89 1;
#X obj 255 -45 route open start stop pause unpause;
#X obj 181 -15 list prepend open;
#X obj 181 8 t l b;
#X obj 181 37 list trim;
#X msg 337 43 stop;
#X connect 1 0 0 1;
#X connect 2 0 0 0;
#X connect 4 0 8 0;
#X connect 5 0 10 0;
#X connect 6 0 3 0;
#X connect 7 0 0 0;
#X connect 8 0 3 0;
#X connect 9 0 3 0;
#X connect 10 0 11 0;
#X connect 10 1 7 0;
#X connect 10 2 14 0;
#X connect 10 3 8 0;
#X connect 10 4 9 0;
#X connect 11 0 12 0;
#X connect 12 0 13 0;
#X connect 12 1 6 0;
#X connect 13 0 0 0;
#X connect 14 0 0 0;
