#N canvas 631 106 380 340 10;
#X obj -146 81 bng 15 50 10 0 empty empty empty 17 7 0 10 -262144 -1
-1;
#X obj -118 148 *~;
#X obj -107 35 t b b;
#X obj -107 11 inlet;
#X obj -146 104 tabplay~ \$1;
#X obj -35 104 f \$2;
#X obj -54 11 inlet;
#X obj -66 104 f;
#X obj -29 166 \$0;
#X obj -118 176 *~ 0.2;
#X obj -118 303 dac~;
#X obj -32 248 throw~ revL;
#X obj 44 248 throw~ revR;
#X obj -13 219 *~ 0.6;
#X obj 34 17 bng 15 250 50 0 empty empty empty 17 7 0 10 -262144 -1
-1;
#X obj 35 96 tabread4~ \$1;
#X obj 64 141 line~;
#X msg 26 66 1 \, 46722 1000;
#X connect 0 0 4 0;
#X connect 1 0 9 0;
#X connect 2 0 0 0;
#X connect 2 0 17 0;
#X connect 2 1 5 0;
#X connect 3 0 2 0;
#X connect 5 0 1 1;
#X connect 6 0 7 1;
#X connect 7 0 1 1;
#X connect 9 0 10 0;
#X connect 9 0 10 1;
#X connect 9 0 13 0;
#X connect 13 0 11 0;
#X connect 13 0 12 0;
#X connect 14 0 2 0;
#X connect 15 0 1 0;
#X connect 16 0 15 0;
#X connect 17 0 16 0;
