#N canvas 975 422 380 340 10;
#X obj -146 81 bng 15 50 10 0 empty empty empty 17 7 0 10 -262144 -1
-1;
#X obj -107 35 t b b;
#X obj -107 11 inlet;
#X obj -146 104 tabplay~ \$1;
#X obj -35 104 f \$2;
#X obj -54 11 inlet;
#X obj -66 104 f;
#X obj -29 166 \$0;
#X obj 34 17 bng 15 250 50 0 empty empty empty 17 7 0 10 -262144 -1
-1;
#X obj 46 306 throw~ revL;
#X obj 152 306 throw~ revR;
#X obj -138 307 throw~ mainL;
#X obj -53 307 throw~ mainR;
#X obj -118 148 *~ 1;
#X obj -118 176 *~ 0.8;
#X obj -13 245 *~ 0.2;
#X obj 72 166 r kickFilterCutoff;
#X obj -118 209 hip~ 5000;
#X connect 0 0 3 0;
#X connect 1 0 0 0;
#X connect 1 1 4 0;
#X connect 2 0 1 0;
#X connect 3 0 13 0;
#X connect 4 0 13 1;
#X connect 5 0 6 1;
#X connect 6 0 13 1;
#X connect 8 0 1 0;
#X connect 13 0 14 0;
#X connect 14 0 17 0;
#X connect 15 0 9 0;
#X connect 15 0 10 0;
#X connect 16 0 17 1;
#X connect 17 0 15 0;
#X connect 17 0 11 0;
#X connect 17 0 12 0;
