#N canvas 1013 410 510 418 10;
#X obj 230 134 * 0.5;
#X obj 202 213 *~;
#X obj 98 178 supersaw;
#X obj 38 212 *~;
#X obj 83 212 *~;
#X obj 173 35 inlet;
#X obj 173 75 mtof;
#X obj 173 101 glissando;
#X obj 310 84 r synthModulatorMultiplier;
#X obj 311 110 r synthModulatorIntensity;
#X obj 217 179 fm, f 5;
#X obj 35 34 inlet~;
#X obj 120 381 outlet~;
#X obj 65 381 outlet~;
#X obj 83 240 *~ \$1;
#X obj 38 240 *~ \$1;
#X obj 202 239 *~ \$2;
#X obj 175 381 outlet~;
#X obj 362 290 switch~;
#X obj 432 227 loadbang;
#X msg 432 255 0;
#X obj 314 204 r useSynth-\$3;
#X obj 368 30 \$0;
#X connect 0 0 10 1;
#X connect 1 0 16 0;
#X connect 2 0 3 1;
#X connect 2 1 4 1;
#X connect 3 0 15 0;
#X connect 4 0 14 0;
#X connect 5 0 6 0;
#X connect 6 0 7 0;
#X connect 7 0 0 0;
#X connect 7 0 10 0;
#X connect 7 0 2 0;
#X connect 8 0 0 1;
#X connect 9 0 10 2;
#X connect 10 0 1 1;
#X connect 11 0 3 0;
#X connect 11 0 4 0;
#X connect 11 0 1 0;
#X connect 14 0 12 0;
#X connect 15 0 13 0;
#X connect 16 0 17 0;
#X connect 19 0 20 0;
#X connect 20 0 18 0;
#X connect 21 0 18 0;
