#N canvas 832 489 183 316 10;
#X obj 20 90 -~ 0.5;
#X obj 20 62 phasor~ 220;
#X obj 20 273 outlet~;
#X obj 20 28 inlet;
#X obj 20 112 *~ 0.5;
#X obj 5 164 *~;
#X obj -33 28 inlet~;
#X obj 11 210 clip~ -0.75 0.75;
#X obj 102 28 \$0;
#X connect 0 0 4 0;
#X connect 1 0 0 0;
#X connect 3 0 1 0;
#X connect 4 0 5 1;
#X connect 5 0 7 0;
#X connect 6 0 5 0;
#X connect 7 0 2 0;
