#N canvas 568 460 431 345 10;
#X obj 71 66 f;
#X obj 71 126 + 1;
#X obj 120 99 mod 8;
#X obj 189 203 f;
#X obj 189 128 sel 1;
#X obj 177 54 t f f;
#X obj 216 168 b;
#X obj 237 203 f;
#X msg 189 269 0;
#X obj 177 93 <=;
#X obj 189 228 b;
#X obj 237 228 b;
#X text 265 214 ]-- Steps > Current step;
#X text 74 269 Reset immediately;
#X obj 177 13 inlet;
#X text 13 94 Counter;
#X text 236 93 Change number of steps;
#X obj 71 14 inlet;
#X text 41 14 Sync;
#X obj 51 311 outlet;
#X obj 363 12 \$0;
#X text 344 13 ID;
#X text 28 213 Steps <= Current step --[;
#X obj 270 12 loadbang;
#X msg 270 31 0;
#X text 214 13 Steps;
#X connect 0 0 1 0;
#X connect 0 0 9 1;
#X connect 0 0 19 0;
#X connect 1 0 2 0;
#X connect 2 0 0 1;
#X connect 3 0 10 0;
#X connect 3 0 2 1;
#X connect 4 0 3 0;
#X connect 4 1 6 0;
#X connect 5 0 9 0;
#X connect 5 1 3 1;
#X connect 5 1 7 1;
#X connect 6 0 7 0;
#X connect 7 0 2 1;
#X connect 7 0 11 0;
#X connect 8 0 0 1;
#X connect 9 0 4 0;
#X connect 10 0 8 0;
#X connect 11 0 2 0;
#X connect 14 0 5 0;
#X connect 17 0 0 0;
#X connect 23 0 24 0;
#X connect 24 0 5 0;
