#N canvas 532 44 354 444 10;
#X obj 39 245 +~;
#X obj 39 130 -~ 0.5;
#X obj 115 130 -~ 0.5;
#X obj 39 102 phasor~ 220;
#X obj 190 130 -~ 0.5;
#X obj 190 102 phasor~ 221;
#X obj 264 130 -~ 0.5;
#X obj 115 102 phasor~ 219;
#X obj 264 102 phasor~ 222;
#X obj 115 78 - 1;
#X obj 190 78 + 1;
#X obj 264 78 + 2;
#X obj 64 407 outlet~;
#X obj 118 407 outlet~;
#X obj 41 17 \$0;
#X obj 146 18 inlet;
#X obj 39 152 *~ 0.5;
#X obj 115 152 *~ 0.5;
#X obj 190 152 *~ 0.5;
#X obj 264 152 *~ 0.5;
#X obj 179 271 noise~;
#X obj 118 379 +~;
#X obj 64 379 +~;
#X obj 179 295 hip~ 2500;
#X obj 179 317 *~ 0.1;
#X connect 0 0 22 0;
#X connect 0 0 21 0;
#X connect 1 0 16 0;
#X connect 2 0 17 0;
#X connect 3 0 1 0;
#X connect 4 0 18 0;
#X connect 5 0 4 0;
#X connect 6 0 19 0;
#X connect 7 0 2 0;
#X connect 8 0 6 0;
#X connect 9 0 7 0;
#X connect 10 0 5 0;
#X connect 11 0 8 0;
#X connect 15 0 3 0;
#X connect 15 0 9 0;
#X connect 15 0 10 0;
#X connect 15 0 11 0;
#X connect 16 0 0 0;
#X connect 17 0 22 0;
#X connect 18 0 21 0;
#X connect 19 0 0 1;
#X connect 20 0 23 0;
#X connect 21 0 13 0;
#X connect 22 0 12 0;
#X connect 23 0 24 0;
#X connect 24 0 22 1;
#X connect 24 0 21 1;
