#N canvas 1054 227 633 874 10;
#X obj -96 71 sel 0;
#X obj -96 11 counter \$1;
#X obj -67 242 t b b;
#X obj 212 77 \$0;
#X obj -55 201 bng 15 250 50 0 empty empty empty 17 7 0 10 -262144
-1 -1;
#X obj -72 731 outlet~;
#X obj 98 208 list;
#X obj 98 264 list trim;
#X obj -39 112 f;
#X obj 177 43 sel 0;
#X obj 1 121 + 1;
#X msg 164 83 0;
#X obj -50 89 b;
#X obj -39 171 s \$1-currentPulse;
#X obj -74 332 t b f;
#X msg -75 358 1;
#X obj -75 380 /;
#X obj -75 512 phasor~;
#X obj -15 355 * 44100;
#X obj -75 540 *~ 44100;
#X msg -38 302 2;
#X obj -72 619 tabread4~;
#X obj -47 455 f;
#X msg 3 431 1;
#X obj 3 380 loadbang;
#X obj -75 404 t f b;
#X obj 73 355 r \$1-pitchShiftFactor;
#X obj -75 477 *;
#X msg 71 474 0;
#X obj 70 445 threshold~ 0.999 0 0.999 0;
#X msg 35 299 0;
#X obj 119 147 r \$1-sampleTable;
#X obj 27 49 s \$1-currentStep;
#X obj -96 49 tabread \$1-pattern;
#X obj -72 698 *~ 0.5;
#X obj -72 663 lop~ 20000;
#X obj 101 558 r \$1-filterCutoff;
#X obj 284 44 r \$1-spawn;
#X connect 0 1 2 0;
#X connect 0 1 12 0;
#X connect 1 0 9 0;
#X connect 1 0 32 0;
#X connect 1 0 33 0;
#X connect 2 0 20 0;
#X connect 2 1 6 0;
#X connect 2 1 30 0;
#X connect 4 0 2 0;
#X connect 6 0 7 0;
#X connect 7 0 21 0;
#X connect 8 0 10 0;
#X connect 8 0 32 0;
#X connect 8 0 13 0;
#X connect 9 0 11 0;
#X connect 10 0 8 1;
#X connect 11 0 8 1;
#X connect 12 0 8 0;
#X connect 14 0 15 0;
#X connect 14 1 16 1;
#X connect 15 0 16 0;
#X connect 16 0 25 0;
#X connect 17 0 19 0;
#X connect 17 0 29 0;
#X connect 18 0 19 1;
#X connect 19 0 21 0;
#X connect 20 0 14 0;
#X connect 20 0 18 0;
#X connect 21 0 35 0;
#X connect 22 0 27 1;
#X connect 23 0 22 1;
#X connect 24 0 23 0;
#X connect 25 0 27 0;
#X connect 25 1 22 0;
#X connect 26 0 22 1;
#X connect 27 0 17 0;
#X connect 28 0 17 0;
#X connect 28 0 17 1;
#X connect 29 0 28 0;
#X connect 30 0 17 1;
#X connect 31 0 6 1;
#X connect 33 0 0 0;
#X connect 34 0 5 0;
#X connect 35 0 34 0;
#X connect 36 0 35 1;
#X connect 37 0 2 0;
