#N canvas 353 624 903 398 10;
#X obj 367 322 throw~ revL;
#X obj 473 322 throw~ revR;
#X obj 367 126 *~ 0.6;
#X obj 473 131 *~ 0.15;
#X obj 183 323 throw~ mainL;
#X obj 268 323 throw~ mainR;
#X obj 698 256 switch~;
#X obj 769 187 loadbang;
#X obj 367 254 *~ 1;
#X obj 473 254 *~ 1;
#X obj 565 76 r improvise;
#X obj 565 97 sel 0 1;
#X obj 631 161 gainadjuster;
#X msg 599 120 1;
#X msg 565 120 0.7;
#X msg 775 219 1;
#X obj 414 25 synth-v2-ps perc1 0.5;
#X obj 150 139 +~;
#X obj 251 137 +~;
#X obj 283 137 +~;
#X obj 268 166 +~;
#X obj 183 139 +~;
#X obj 183 168 +~;
#X obj 582 25 synth-v2-ps perc2 0.5;
#X obj 11 24 synth-v2-ps mbira 0.5;
#X obj 144 24 synth-v2-ps pizz 0.5;
#X obj 280 25 synth-v2-ps bar 0.5;
#X obj 183 291 *~ 0.5;
#X obj 268 291 *~ 0.5;
#X obj 367 294 *~ 0.5;
#X obj 473 293 *~ 0.5;
#X obj 234 258 \$1;
#X obj 538 259 \$2;
#X connect 2 0 8 0;
#X connect 3 0 9 0;
#X connect 7 0 15 0;
#X connect 7 0 32 0;
#X connect 7 0 31 0;
#X connect 8 0 29 0;
#X connect 8 0 30 0;
#X connect 9 0 29 0;
#X connect 9 0 30 0;
#X connect 10 0 11 0;
#X connect 11 0 14 0;
#X connect 11 1 13 0;
#X connect 13 0 8 1;
#X connect 13 0 9 1;
#X connect 13 0 12 0;
#X connect 14 0 8 1;
#X connect 14 0 9 1;
#X connect 14 0 12 0;
#X connect 15 0 6 0;
#X connect 16 0 3 0;
#X connect 16 0 19 0;
#X connect 16 0 21 0;
#X connect 17 0 22 0;
#X connect 18 0 20 0;
#X connect 19 0 20 1;
#X connect 20 0 28 0;
#X connect 21 0 22 0;
#X connect 22 0 27 0;
#X connect 23 0 3 0;
#X connect 23 0 19 1;
#X connect 23 0 21 1;
#X connect 24 0 2 0;
#X connect 24 0 17 0;
#X connect 24 0 18 0;
#X connect 25 0 2 0;
#X connect 25 0 17 1;
#X connect 25 0 18 1;
#X connect 26 0 2 0;
#X connect 26 0 17 1;
#X connect 26 0 18 1;
#X connect 27 0 4 0;
#X connect 28 0 5 0;
#X connect 29 0 0 0;
#X connect 30 0 1 0;
#X connect 31 0 27 1;
#X connect 31 0 28 1;
#X connect 32 0 29 1;
#X connect 32 0 30 1;
